<?xml version="1.0" encoding="UTF-8" standalone="no"?>
<svg
   xmlns:dc="http://purl.org/dc/elements/1.1/"
   xmlns:cc="http://creativecommons.org/ns#"
   xmlns:rdf="http://www.w3.org/1999/02/22-rdf-syntax-ns#"
   xmlns:svg="http://www.w3.org/2000/svg"
   xmlns="http://www.w3.org/2000/svg"
   viewBox="0 0 1000 1000"
   height="1000"
   width="1000"
   xml:space="preserve"
   id="svg2"
   version="1.1"><metadata
     id="metadata8"><rdf:RDF><cc:Work
         rdf:about=""><dc:format>image/svg+xml</dc:format><dc:type
           rdf:resource="http://purl.org/dc/dcmitype/StillImage" /></cc:Work></rdf:RDF></metadata><defs
     id="defs6" /><g
     transform="matrix(1.3333333,0,0,-1.3333333,0,1000)"
     id="g10"><g
       transform="scale(0.1)"
       id="g12"><path
         id="path14"
         style="fill:#000000;fill-opacity:1;fill-rule:nonzero;stroke:none"
         d="M 0,0 H 7500 V 7500 H 0 Z" /><path
         id="path16"
         style="fill:#ffffff;fill-opacity:1;fill-rule:nonzero;stroke:none"
         d="m 3598.67,5978.71 c -1230.9,0 -2228.71,-997.81 -2228.71,-2228.71 1.02,-486.6 161.25,-959.49 456.25,-1346.48 97.5,-2.19 208.36,4.92 329.26,21.71 -332.31,361.25 -517.07,833.95 -517.81,1324.77 -0.04,1083.05 877.97,1961.05 1961.01,1961.05 746.37,-0.42 1427.78,-424.53 1757.78,-1093.98 l 249.84,94.38 C 5236.52,5484.8 4455.9,5977.54 3598.67,5978.71 Z M 4145.66,5059.3 V 3257.66 c 263.95,161.99 495.36,331.32 683.44,496.09 20.47,17.93 40.98,37.11 61.41,57.03 V 5059.3 Z m 2417.7,-93.36 -1439.73,-543.79 295.59,-220.63 c 0,0 -266.88,-365.78 -490.43,-561.64 -286.33,-250.86 -663.2,-507.18 -1099.77,-735.66 -1149.76,-601.68 -2277.89,-782.19 -2519.8,-403.2 -90,142.11 -44.49,350.43 130.31,596.28 -424.37,-394.14 -589.882,-751.48 -459.3,-991.48 268.91,-493.05 1690.28,-364.92 3174.69,286.17 471.49,206.8 892.58,441.49 1239.1,681.25 297.78,206.02 712.89,614.96 712.89,614.96 l 344.57,-257.18 z M 3226.25,4477.38 V 2789.14 c 174.49,72.15 353.28,155.31 532.54,249.14 72.62,37.97 143.32,76.76 212.34,116.13 V 4477.38 Z M 2306.84,3895.51 V 2502.62 c 224.8,43.67 477.89,116.83 744.84,217.58 v 1175.31 z m 3458,-658.56 c -99.92,-85.62 -209.25,-173.59 -313.82,-245.93 -21.53,-14.89 -43.32,-29.77 -65.36,-44.61 -316.13,-703.71 -1015.5,-1156.72 -1786.99,-1157.43 -201.56,0.24 -401.87,31.53 -593.87,92.82 -153.9,-40.35 -303.55,-73.91 -447.57,-100.51 320.78,-170.24 678.28,-259.49 1041.44,-260 1032.27,1.25 1928.56,711.13 2166.17,1715.66 z" /></g></g></svg>